# xmcd
#
# Track frame offsets: 
#        150
#        17704
#        41470
#        64343
#        77990
#        91379
#        106198
#        117952
#        138055
#        153209
#        177825
#        200877
#        211417
#        236525
#        260995
#        281962
#
# Disc length: 4457 seconds
#
# Revision: 0
# Processed by: cddbd v1.5PL3 Copyright (c) Steve Scherf et al.
# Submitted via: ExactAudioCopy v0.95a5
#
DISCID=e7116710
DTITLE=Various Artist - Thredbo Blues Festival Live sessions 2004
DYEAR=2004
DGENRE=Blues
TTITLE0=Alice Stewart - Hard Time Killin' Floor
TTITLE1=Kevin Borich - 21st Century
TTITLE2=Bo jenkins   P.O.S.
TTITLE3=JVB and the Tender Felecasters - French Automobile
TTITLE4=Andy Collins - Barron Delta Blue
TTITLE5=Fiona Bayes - Aint No Jelly roll in Heaven
TTITLE6=Mick RJ - Stumpy's Jump
TTITLE7=Foreday Riders - Once A Week
TTITLE8=Phil Manning - Dog
TTITLE9=Robert Susz's Continental Blues Party - Hard Way To Live
TTITLE10=Darren Jack Band - Breakaway
TTITLE11=Jimi Hocking - Trouble
TTITLE12=Nick Charles - Mr. Whitaker's Blues
TTITLE13=Spectrum - (I Cannot) Look At The Moon
TTITLE14=Brian Fraser - River Run Red
TTITLE15=The Thredbo Blues Jam feat. Matt Taylor
EXTD=
EXTT0=
EXTT1=
EXTT2=
EXTT3=
EXTT4=
EXTT5=
EXTT6=
EXTT7=
EXTT8=
EXTT9=
EXTT10=
EXTT11=
EXTT12=
EXTT13=
EXTT14=
EXTT15=
PLAYORDER=
